<svg width="72" height="72" viewBox="0 0 72 72" fill="none" xmlns="http://www.w3.org/2000/svg">
<path fill-rule="evenodd" clip-rule="evenodd" d="M36 72C55.8823 72 72 55.8823 72 36C72 16.1178 55.8823 0 36 0C16.1178 0 0 16.1178 0 36C0 55.8823 16.1178 72 36 72ZM39.694 26.1899C38.8398 25.5901 37.8725 24.9696 36.871 24.3606C33.0103 22.0129 31.08 20.8391 29.3487 22.1387C27.6174 23.4384 27.4601 26.159 27.1454 31.6004C27.0564 33.1392 27 34.6478 27 36.0002C27 37.3525 27.0564 38.8611 27.1454 40.3999C27.4601 45.8413 27.6174 48.562 29.3487 49.8616C31.08 51.1612 33.0103 49.9874 36.871 47.6397C37.8725 47.0307 38.8398 46.4102 39.694 45.8105C40.6676 45.1268 41.7271 44.3063 42.7954 43.4349C46.6651 40.2781 48.6 38.6997 48.6 36.0002C48.6 33.3006 46.6651 31.7222 42.7954 28.5655C41.7271 27.694 40.6676 26.8736 39.694 26.1899Z" fill="white"/>
</svg>
